<?xml version="1.0" encoding="utf-8"?>
<svg version="1.1" baseProfile="full" width="800" height="600" xmlns="http://www.w3.org/2000/svg">
<clipPath>
<rect x="0" y="0" width="800" height="600" fill="rgb(0,0,0)" />
</clipPath>
<text x="279" y="34" fill="rgb(0,0,0)">
Number of Elements Sorted Versus Time</text>
<line x1="158.858" y1="50" x2="158.858" y2="550" stroke="rgb(200,200,200)" />
<line x1="222.835" y1="50" x2="222.835" y2="550" stroke="rgb(200,200,200)" />
<line x1="286.811" y1="50" x2="286.811" y2="550" stroke="rgb(200,200,200)" />
<line x1="350.787" y1="50" x2="350.787" y2="550" stroke="rgb(200,200,200)" />
<line x1="414.764" y1="50" x2="414.764" y2="550" stroke="rgb(200,200,200)" />
<line x1="478.74" y1="50" x2="478.74" y2="550" stroke="rgb(200,200,200)" />
<line x1="542.717" y1="50" x2="542.717" y2="550" stroke="rgb(200,200,200)" />
<line x1="606.693" y1="50" x2="606.693" y2="550" stroke="rgb(200,200,200)" />
<line x1="670.669" y1="50" x2="670.669" y2="550" stroke="rgb(200,200,200)" />
<line x1="734.646" y1="50" x2="734.646" y2="550" stroke="rgb(200,200,200)" />
<line x1="100" y1="550" x2="750" y2="550" stroke="rgb(200,200,200)" />
<line x1="100" y1="517.416" x2="750" y2="517.416" stroke="rgb(200,200,200)" />
<line x1="100" y1="484.832" x2="750" y2="484.832" stroke="rgb(200,200,200)" />
<line x1="100" y1="452.248" x2="750" y2="452.248" stroke="rgb(200,200,200)" />
<line x1="100" y1="419.664" x2="750" y2="419.664" stroke="rgb(200,200,200)" />
<line x1="100" y1="387.08" x2="750" y2="387.08" stroke="rgb(200,200,200)" />
<line x1="100" y1="354.497" x2="750" y2="354.497" stroke="rgb(200,200,200)" />
<line x1="100" y1="321.913" x2="750" y2="321.913" stroke="rgb(200,200,200)" />
<line x1="100" y1="289.329" x2="750" y2="289.329" stroke="rgb(200,200,200)" />
<line x1="100" y1="256.745" x2="750" y2="256.745" stroke="rgb(200,200,200)" />
<line x1="100" y1="224.161" x2="750" y2="224.161" stroke="rgb(200,200,200)" />
<line x1="100" y1="191.577" x2="750" y2="191.577" stroke="rgb(200,200,200)" />
<line x1="100" y1="158.993" x2="750" y2="158.993" stroke="rgb(200,200,200)" />
<line x1="100" y1="126.409" x2="750" y2="126.409" stroke="rgb(200,200,200)" />
<line x1="100" y1="93.8253" x2="750" y2="93.8253" stroke="rgb(200,200,200)" />
<line x1="100" y1="61.2415" x2="750" y2="61.2415" stroke="rgb(200,200,200)" />
<line x1="100" y1="550" x2="750" y2="550" stroke="rgb(0,0,0)" />
<line x1="107.677" y1="550" x2="107.677" y2="554" stroke="rgb(0,0,0)" />
<line x1="120.472" y1="550" x2="120.472" y2="554" stroke="rgb(0,0,0)" />
<line x1="133.268" y1="550" x2="133.268" y2="554" stroke="rgb(0,0,0)" />
<line x1="146.063" y1="550" x2="146.063" y2="554" stroke="rgb(0,0,0)" />
<text x="158" y="578" fill="rgb(0,0,0)">
200</text>
<line x1="158.858" y1="550" x2="158.858" y2="558" stroke="rgb(0,0,0)" />
<line x1="171.654" y1="550" x2="171.654" y2="554" stroke="rgb(0,0,0)" />
<line x1="184.449" y1="550" x2="184.449" y2="554" stroke="rgb(0,0,0)" />
<line x1="197.244" y1="550" x2="197.244" y2="554" stroke="rgb(0,0,0)" />
<line x1="210.039" y1="550" x2="210.039" y2="554" stroke="rgb(0,0,0)" />
<text x="222" y="578" fill="rgb(0,0,0)">
400</text>
<line x1="222.835" y1="550" x2="222.835" y2="558" stroke="rgb(0,0,0)" />
<line x1="235.63" y1="550" x2="235.63" y2="554" stroke="rgb(0,0,0)" />
<line x1="248.425" y1="550" x2="248.425" y2="554" stroke="rgb(0,0,0)" />
<line x1="261.22" y1="550" x2="261.22" y2="554" stroke="rgb(0,0,0)" />
<line x1="274.016" y1="550" x2="274.016" y2="554" stroke="rgb(0,0,0)" />
<text x="286" y="578" fill="rgb(0,0,0)">
600</text>
<line x1="286.811" y1="550" x2="286.811" y2="558" stroke="rgb(0,0,0)" />
<line x1="299.606" y1="550" x2="299.606" y2="554" stroke="rgb(0,0,0)" />
<line x1="312.402" y1="550" x2="312.402" y2="554" stroke="rgb(0,0,0)" />
<line x1="325.197" y1="550" x2="325.197" y2="554" stroke="rgb(0,0,0)" />
<line x1="337.992" y1="550" x2="337.992" y2="554" stroke="rgb(0,0,0)" />
<text x="350" y="578" fill="rgb(0,0,0)">
800</text>
<line x1="350.787" y1="550" x2="350.787" y2="558" stroke="rgb(0,0,0)" />
<line x1="363.583" y1="550" x2="363.583" y2="554" stroke="rgb(0,0,0)" />
<line x1="376.378" y1="550" x2="376.378" y2="554" stroke="rgb(0,0,0)" />
<line x1="389.173" y1="550" x2="389.173" y2="554" stroke="rgb(0,0,0)" />
<line x1="401.969" y1="550" x2="401.969" y2="554" stroke="rgb(0,0,0)" />
<text x="414" y="578" fill="rgb(0,0,0)">
1000</text>
<line x1="414.764" y1="550" x2="414.764" y2="558" stroke="rgb(0,0,0)" />
<line x1="427.559" y1="550" x2="427.559" y2="554" stroke="rgb(0,0,0)" />
<line x1="440.354" y1="550" x2="440.354" y2="554" stroke="rgb(0,0,0)" />
<line x1="453.15" y1="550" x2="453.15" y2="554" stroke="rgb(0,0,0)" />
<line x1="465.945" y1="550" x2="465.945" y2="554" stroke="rgb(0,0,0)" />
<text x="478" y="578" fill="rgb(0,0,0)">
1200</text>
<line x1="478.74" y1="550" x2="478.74" y2="558" stroke="rgb(0,0,0)" />
<line x1="491.535" y1="550" x2="491.535" y2="554" stroke="rgb(0,0,0)" />
<line x1="504.331" y1="550" x2="504.331" y2="554" stroke="rgb(0,0,0)" />
<line x1="517.126" y1="550" x2="517.126" y2="554" stroke="rgb(0,0,0)" />
<line x1="529.921" y1="550" x2="529.921" y2="554" stroke="rgb(0,0,0)" />
<text x="542" y="578" fill="rgb(0,0,0)">
1400</text>
<line x1="542.717" y1="550" x2="542.717" y2="558" stroke="rgb(0,0,0)" />
<line x1="555.512" y1="550" x2="555.512" y2="554" stroke="rgb(0,0,0)" />
<line x1="568.307" y1="550" x2="568.307" y2="554" stroke="rgb(0,0,0)" />
<line x1="581.102" y1="550" x2="581.102" y2="554" stroke="rgb(0,0,0)" />
<line x1="593.898" y1="550" x2="593.898" y2="554" stroke="rgb(0,0,0)" />
<text x="606" y="578" fill="rgb(0,0,0)">
1600</text>
<line x1="606.693" y1="550" x2="606.693" y2="558" stroke="rgb(0,0,0)" />
<line x1="619.488" y1="550" x2="619.488" y2="554" stroke="rgb(0,0,0)" />
<line x1="632.283" y1="550" x2="632.283" y2="554" stroke="rgb(0,0,0)" />
<line x1="645.079" y1="550" x2="645.079" y2="554" stroke="rgb(0,0,0)" />
<line x1="657.874" y1="550" x2="657.874" y2="554" stroke="rgb(0,0,0)" />
<text x="670" y="578" fill="rgb(0,0,0)">
1800</text>
<line x1="670.669" y1="550" x2="670.669" y2="558" stroke="rgb(0,0,0)" />
<line x1="683.465" y1="550" x2="683.465" y2="554" stroke="rgb(0,0,0)" />
<line x1="696.26" y1="550" x2="696.26" y2="554" stroke="rgb(0,0,0)" />
<line x1="709.055" y1="550" x2="709.055" y2="554" stroke="rgb(0,0,0)" />
<line x1="721.85" y1="550" x2="721.85" y2="554" stroke="rgb(0,0,0)" />
<text x="734" y="578" fill="rgb(0,0,0)">
2000</text>
<line x1="734.646" y1="550" x2="734.646" y2="558" stroke="rgb(0,0,0)" />
<line x1="747.441" y1="550" x2="747.441" y2="554" stroke="rgb(0,0,0)" />
<text x="409" y="594" fill="rgb(0,0,0)">
N</text>
<line x1="100" y1="50" x2="100" y2="550" stroke="rgb(0,0,0)" />
<text x="58" y="558" fill="rgb(0,0,0)">
0</text>
<line x1="100" y1="550" x2="92" y2="550" stroke="rgb(0,0,0)" />
<line x1="100" y1="543.483" x2="96" y2="543.483" stroke="rgb(0,0,0)" />
<line x1="100" y1="536.966" x2="96" y2="536.966" stroke="rgb(0,0,0)" />
<line x1="100" y1="530.45" x2="96" y2="530.45" stroke="rgb(0,0,0)" />
<line x1="100" y1="523.933" x2="96" y2="523.933" stroke="rgb(0,0,0)" />
<text x="42" y="525" fill="rgb(0,0,0)">
1000</text>
<line x1="100" y1="517.416" x2="92" y2="517.416" stroke="rgb(0,0,0)" />
<line x1="100" y1="510.899" x2="96" y2="510.899" stroke="rgb(0,0,0)" />
<line x1="100" y1="504.383" x2="96" y2="504.383" stroke="rgb(0,0,0)" />
<line x1="100" y1="497.866" x2="96" y2="497.866" stroke="rgb(0,0,0)" />
<line x1="100" y1="491.349" x2="96" y2="491.349" stroke="rgb(0,0,0)" />
<text x="40" y="492" fill="rgb(0,0,0)">
2000</text>
<line x1="100" y1="484.832" x2="92" y2="484.832" stroke="rgb(0,0,0)" />
<line x1="100" y1="478.315" x2="96" y2="478.315" stroke="rgb(0,0,0)" />
<line x1="100" y1="471.799" x2="96" y2="471.799" stroke="rgb(0,0,0)" />
<line x1="100" y1="465.282" x2="96" y2="465.282" stroke="rgb(0,0,0)" />
<line x1="100" y1="458.765" x2="96" y2="458.765" stroke="rgb(0,0,0)" />
<text x="40" y="460" fill="rgb(0,0,0)">
3000</text>
<line x1="100" y1="452.248" x2="92" y2="452.248" stroke="rgb(0,0,0)" />
<line x1="100" y1="445.732" x2="96" y2="445.732" stroke="rgb(0,0,0)" />
<line x1="100" y1="439.215" x2="96" y2="439.215" stroke="rgb(0,0,0)" />
<line x1="100" y1="432.698" x2="96" y2="432.698" stroke="rgb(0,0,0)" />
<line x1="100" y1="426.181" x2="96" y2="426.181" stroke="rgb(0,0,0)" />
<text x="40" y="427" fill="rgb(0,0,0)">
4000</text>
<line x1="100" y1="419.664" x2="92" y2="419.664" stroke="rgb(0,0,0)" />
<line x1="100" y1="413.148" x2="96" y2="413.148" stroke="rgb(0,0,0)" />
<line x1="100" y1="406.631" x2="96" y2="406.631" stroke="rgb(0,0,0)" />
<line x1="100" y1="400.114" x2="96" y2="400.114" stroke="rgb(0,0,0)" />
<line x1="100" y1="393.597" x2="96" y2="393.597" stroke="rgb(0,0,0)" />
<text x="40" y="395" fill="rgb(0,0,0)">
5000</text>
<line x1="100" y1="387.08" x2="92" y2="387.08" stroke="rgb(0,0,0)" />
<line x1="100" y1="380.564" x2="96" y2="380.564" stroke="rgb(0,0,0)" />
<line x1="100" y1="374.047" x2="96" y2="374.047" stroke="rgb(0,0,0)" />
<line x1="100" y1="367.53" x2="96" y2="367.53" stroke="rgb(0,0,0)" />
<line x1="100" y1="361.013" x2="96" y2="361.013" stroke="rgb(0,0,0)" />
<text x="40" y="362" fill="rgb(0,0,0)">
6000</text>
<line x1="100" y1="354.497" x2="92" y2="354.497" stroke="rgb(0,0,0)" />
<line x1="100" y1="347.98" x2="96" y2="347.98" stroke="rgb(0,0,0)" />
<line x1="100" y1="341.463" x2="96" y2="341.463" stroke="rgb(0,0,0)" />
<line x1="100" y1="334.946" x2="96" y2="334.946" stroke="rgb(0,0,0)" />
<line x1="100" y1="328.429" x2="96" y2="328.429" stroke="rgb(0,0,0)" />
<text x="40" y="329" fill="rgb(0,0,0)">
7000</text>
<line x1="100" y1="321.913" x2="92" y2="321.913" stroke="rgb(0,0,0)" />
<line x1="100" y1="315.396" x2="96" y2="315.396" stroke="rgb(0,0,0)" />
<line x1="100" y1="308.879" x2="96" y2="308.879" stroke="rgb(0,0,0)" />
<line x1="100" y1="302.362" x2="96" y2="302.362" stroke="rgb(0,0,0)" />
<line x1="100" y1="295.846" x2="96" y2="295.846" stroke="rgb(0,0,0)" />
<text x="40" y="297" fill="rgb(0,0,0)">
8000</text>
<line x1="100" y1="289.329" x2="92" y2="289.329" stroke="rgb(0,0,0)" />
<line x1="100" y1="282.812" x2="96" y2="282.812" stroke="rgb(0,0,0)" />
<line x1="100" y1="276.295" x2="96" y2="276.295" stroke="rgb(0,0,0)" />
<line x1="100" y1="269.778" x2="96" y2="269.778" stroke="rgb(0,0,0)" />
<line x1="100" y1="263.262" x2="96" y2="263.262" stroke="rgb(0,0,0)" />
<text x="40" y="264" fill="rgb(0,0,0)">
9000</text>
<line x1="100" y1="256.745" x2="92" y2="256.745" stroke="rgb(0,0,0)" />
<line x1="100" y1="250.228" x2="96" y2="250.228" stroke="rgb(0,0,0)" />
<line x1="100" y1="243.711" x2="96" y2="243.711" stroke="rgb(0,0,0)" />
<line x1="100" y1="237.195" x2="96" y2="237.195" stroke="rgb(0,0,0)" />
<line x1="100" y1="230.678" x2="96" y2="230.678" stroke="rgb(0,0,0)" />
<text x="36" y="232" fill="rgb(0,0,0)">
10000</text>
<line x1="100" y1="224.161" x2="92" y2="224.161" stroke="rgb(0,0,0)" />
<line x1="100" y1="217.644" x2="96" y2="217.644" stroke="rgb(0,0,0)" />
<line x1="100" y1="211.127" x2="96" y2="211.127" stroke="rgb(0,0,0)" />
<line x1="100" y1="204.611" x2="96" y2="204.611" stroke="rgb(0,0,0)" />
<line x1="100" y1="198.094" x2="96" y2="198.094" stroke="rgb(0,0,0)" />
<text x="37" y="199" fill="rgb(0,0,0)">
11000</text>
<line x1="100" y1="191.577" x2="92" y2="191.577" stroke="rgb(0,0,0)" />
<line x1="100" y1="185.06" x2="96" y2="185.06" stroke="rgb(0,0,0)" />
<line x1="100" y1="178.543" x2="96" y2="178.543" stroke="rgb(0,0,0)" />
<line x1="100" y1="172.027" x2="96" y2="172.027" stroke="rgb(0,0,0)" />
<line x1="100" y1="165.51" x2="96" y2="165.51" stroke="rgb(0,0,0)" />
<text x="36" y="166" fill="rgb(0,0,0)">
12000</text>
<line x1="100" y1="158.993" x2="92" y2="158.993" stroke="rgb(0,0,0)" />
<line x1="100" y1="152.476" x2="96" y2="152.476" stroke="rgb(0,0,0)" />
<line x1="100" y1="145.96" x2="96" y2="145.96" stroke="rgb(0,0,0)" />
<line x1="100" y1="139.443" x2="96" y2="139.443" stroke="rgb(0,0,0)" />
<line x1="100" y1="132.926" x2="96" y2="132.926" stroke="rgb(0,0,0)" />
<text x="36" y="134" fill="rgb(0,0,0)">
13000</text>
<line x1="100" y1="126.409" x2="92" y2="126.409" stroke="rgb(0,0,0)" />
<line x1="100" y1="119.892" x2="96" y2="119.892" stroke="rgb(0,0,0)" />
<line x1="100" y1="113.376" x2="96" y2="113.376" stroke="rgb(0,0,0)" />
<line x1="100" y1="106.859" x2="96" y2="106.859" stroke="rgb(0,0,0)" />
<line x1="100" y1="100.342" x2="96" y2="100.342" stroke="rgb(0,0,0)" />
<text x="36" y="101" fill="rgb(0,0,0)">
14000</text>
<line x1="100" y1="93.8253" x2="92" y2="93.8253" stroke="rgb(0,0,0)" />
<line x1="100" y1="87.3086" x2="96" y2="87.3086" stroke="rgb(0,0,0)" />
<line x1="100" y1="80.7918" x2="96" y2="80.7918" stroke="rgb(0,0,0)" />
<line x1="100" y1="74.275" x2="96" y2="74.275" stroke="rgb(0,0,0)" />
<line x1="100" y1="67.7582" x2="96" y2="67.7582" stroke="rgb(0,0,0)" />
<text x="36" y="69" fill="rgb(0,0,0)">
15000</text>
<line x1="100" y1="61.2415" x2="92" y2="61.2415" stroke="rgb(0,0,0)" />
<line x1="100" y1="54.7247" x2="96" y2="54.7247" stroke="rgb(0,0,0)" />
<text x="36" y="370" transform="rotate(-90,36,370)">Time (microseconds)</text>
<text x="120" y="66" fill="rgb(200,0,100)">
bubbleSort</text>
<text x="120" y="98" fill="rgb(100,20,220)">
selectionSort</text>
<text x="120" y="130" fill="rgb(50,220,10)">
insertionSort</text>
<text x="120" y="162" fill="rgb(200,209,220)">
std::sort</text>
<clipPath>
<rect x="100" y="50" width="650" height="500" fill="rgb(0,0,0)" />
</clipPath>
<line x1="100" y1="549.967" x2="105.118" y2="549.87" stroke="rgb(200,0,100)" />
<line x1="105.118" y1="549.87" x2="115.354" y2="549.511" stroke="rgb(200,0,100)" />
<line x1="115.354" y1="549.511" x2="135.827" y2="548.045" stroke="rgb(200,0,100)" />
<line x1="135.827" y1="548.045" x2="176.772" y2="542.408" stroke="rgb(200,0,100)" />
<line x1="176.772" y1="542.408" x2="258.661" y2="521.033" stroke="rgb(200,0,100)" />
<line x1="258.661" y1="521.033" x2="422.441" y2="432.34" stroke="rgb(200,0,100)" />
<line x1="422.441" y1="432.34" x2="750" y2="50" stroke="rgb(200,0,100)" />
<line x1="100" y1="549.967" x2="105.118" y2="549.902" stroke="rgb(100,20,220)" />
<line x1="105.118" y1="549.902" x2="115.354" y2="549.772" stroke="rgb(100,20,220)" />
<line x1="115.354" y1="549.772" x2="135.827" y2="549.251" stroke="rgb(100,20,220)" />
<line x1="135.827" y1="549.251" x2="176.772" y2="547.263" stroke="rgb(100,20,220)" />
<line x1="176.772" y1="547.263" x2="258.661" y2="539.638" stroke="rgb(100,20,220)" />
<line x1="258.661" y1="539.638" x2="422.441" y2="509.661" stroke="rgb(100,20,220)" />
<line x1="422.441" y1="509.661" x2="750" y2="390.046" stroke="rgb(100,20,220)" />
<line x1="100" y1="549.967" x2="105.118" y2="549.967" stroke="rgb(50,220,10)" />
<line x1="105.118" y1="549.967" x2="115.354" y2="549.902" stroke="rgb(50,220,10)" />
<line x1="115.354" y1="549.902" x2="135.827" y2="549.609" stroke="rgb(50,220,10)" />
<line x1="135.827" y1="549.609" x2="176.772" y2="548.664" stroke="rgb(50,220,10)" />
<line x1="176.772" y1="548.664" x2="258.661" y2="544.95" stroke="rgb(50,220,10)" />
<line x1="258.661" y1="544.95" x2="422.441" y2="530.547" stroke="rgb(50,220,10)" />
<line x1="422.441" y1="530.547" x2="750" y2="471.571" stroke="rgb(50,220,10)" />
<line x1="100" y1="549.967" x2="105.118" y2="549.935" stroke="rgb(200,209,220)" />
<line x1="105.118" y1="549.935" x2="115.354" y2="549.805" stroke="rgb(200,209,220)" />
<line x1="115.354" y1="549.805" x2="135.827" y2="549.576" stroke="rgb(200,209,220)" />
<line x1="135.827" y1="549.576" x2="176.772" y2="549.055" stroke="rgb(200,209,220)" />
<line x1="176.772" y1="549.055" x2="258.661" y2="547.752" stroke="rgb(200,209,220)" />
<line x1="258.661" y1="547.752" x2="422.441" y2="545.178" stroke="rgb(200,209,220)" />
<line x1="422.441" y1="545.178" x2="750" y2="538.889" stroke="rgb(200,209,220)" />
</svg>

